<?xml version="1.0" encoding="utf-8"?>
<!-- Generator: Adobe Illustrator 25.0.0, SVG Export Plug-In . SVG Version: 6.00 Build 0)  -->
<svg version="1.1" id="Layer_2" xmlns="http://www.w3.org/2000/svg" xmlns:xlink="http://www.w3.org/1999/xlink" x="0px" y="0px"
	 viewBox="0 0 337 483.5" style="enable-background:new 0 0 337 483.5;" xml:space="preserve">
<style type="text/css">
	.st0{fill:#2E3192;stroke:#FFFFFF;stroke-width:35;stroke-linecap:round;stroke-miterlimit:10;}
	.st1{fill:none;stroke:#FFFFFF;stroke-width:35;stroke-linecap:round;stroke-miterlimit:10;}
</style>
<line class="st0" x1="168.5" y1="466" x2="168.5" y2="17.5"/>
<path class="st1" d="M168.5,17.5c0,0,111.1,22.2,143.2,158.3c24.5,103.8-12.8,164.5-52.4,194.1c-43.1,32.1-70.4,21.7-90.3,27.2"/>
<path class="st1" d="M168.5,277.4c0,0,0-64.8,41.5-97c39.2-30.4,45.1-61.2,45.2-71.3s-2.2-69-86.8-91.6"/>
<path class="st1" d="M168.9,387.6c0,0-5.4-61.5,41.1-89.8c37.7-22.9,59.7-35.2,78-72.5c15.1-30.7,25.4-62.2-7.9-125.8"/>
<path class="st1" d="M24.3,180.4C2,281.4,38.7,340.7,77.8,369.9c43.1,32.1,70.4,21.7,90.3,27.2"/>
<path class="st1" d="M168.5,277.4c0,0,0-0.8-0.1-2.3c-2.1-53-45.8-94.8-98.8-94.8H24.3"/>
<path class="st1" d="M168.1,387.6c0,0,5.4-61.5-41.1-89.8c-37.7-22.9-59.7-35.2-78-72.5c-6.8-13.9-12.6-27.9-13.9-44.9"/>
</svg>
