<?xml version="1.0" encoding="utf-8"?>
<!-- Generator: Adobe Illustrator 25.0.0, SVG Export Plug-In . SVG Version: 6.00 Build 0)  -->
<svg version="1.1" id="Layer_1" xmlns="http://www.w3.org/2000/svg" xmlns:xlink="http://www.w3.org/1999/xlink" x="0px" y="0px"
	 viewBox="0 0 20.6 20" style="enable-background:new 0 0 20.6 20;" xml:space="preserve">
<path d="M18.1,7.6l0.4-0.4c0.3-0.3,0.2-0.7,0-1s-0.7-0.2-1,0l-0.2,0.2c-0.2-0.9-0.6-1.7-1.3-2.4l1.7-2.9c0.2-0.3,0.1-0.8-0.3-1
	c-0.3-0.2-0.8-0.1-1,0.3l-1.7,2.9c-0.5-0.2-1-0.3-1.5-0.3c-2.2,0-4,1.7-4.1,3.9c0,0.4,0.3,0.7,0.7,0.7c0.2,0,0.4-0.1,0.5-0.2
	c0.1-0.1,0.2-0.3,0.2-0.5c0.1-1.4,1.2-2.5,2.6-2.5c0.3,0,0.5,0,0.7,0.1l-3.7,6.4H1.5c-0.1-0.2-0.1-0.4-0.1-0.6c0-1.1,0.9-2,2-2
	c0.3,0,0.5,0,0.7,0.1c0.4,0.1,0.8,0,0.9-0.4c0.4-0.9,1.3-1.5,2.3-1.5c0.4,0,0.7-0.3,0.7-0.7S7.8,5.1,7.4,5.1c-1.3,0-2.6,0.7-3.3,1.8
	c-0.2,0-0.4-0.1-0.7-0.1C1.6,6.9,0,8.4,0,10.3c0,0.5,0.1,1.1,0.4,1.5c0,0,0,0,2.9,7.6C3.4,19.8,3.6,20,3.9,20h13
	c0.3,0,0.6-0.2,0.7-0.5c0-0.1,2.8-7.2,2.8-7.3c0.2-0.4,0.3-0.9,0.3-1.3C20.6,9.3,19.6,8,18.1,7.6z M11.9,10.9l3.3-5.6
	c0.4,0.5,0.7,1.1,0.7,1.8c0,0.4-0.1,0.7-0.2,1c0,0,0,0.1,0,0.1l-2.5,2.7H11.9z M19.2,10.9C19.2,10.9,19.2,10.9,19.2,10.9l-4.2,0
	l1.8-2c0.1,0,0.3,0,0.4,0C18.3,8.9,19.2,9.8,19.2,10.9z M4.4,18.5l-2.3-6.2h16.6l-2.3,6.2H4.4z"/>
</svg>
