<?xml version="1.0" encoding="utf-8"?>
<!-- Generator: Adobe Illustrator 25.0.0, SVG Export Plug-In . SVG Version: 6.00 Build 0)  -->
<svg version="1.1" id="Layer_1" xmlns="http://www.w3.org/2000/svg" xmlns:xlink="http://www.w3.org/1999/xlink" x="0px" y="0px"
	 viewBox="0 0 18.5 16.7" style="enable-background:new 0 0 18.5 16.7;" xml:space="preserve">
<g>
	<path d="M9.3,16.7c-0.2,0-0.4-0.1-0.5-0.2l-1-1C4.3,12.3,0,8.2,0,5.1C0,1.3,2.7,0,5.2,0C6.7,0,8,0.8,9.3,2.3
		C10.5,0.8,11.8,0,13.3,0c2.5,0,5.2,1.3,5.2,5.1c0,3.2-4.3,7.2-7.7,10.5l-1,1C9.6,16.7,9.4,16.7,9.3,16.7z M5.2,1.5
		C3.8,1.5,1.5,2,1.5,5.1c0,2.5,4.2,6.5,7.3,9.4L9.3,15l0.5-0.5c3.1-2.9,7.3-6.9,7.3-9.4c0-3.1-2.3-3.6-3.7-3.6
		C12.1,1.5,11,2.3,9.9,4C9.7,4.2,9.5,4.3,9.3,4.3l0,0C9,4.3,8.8,4.2,8.6,4C7.5,2.3,6.4,1.5,5.2,1.5z"/>
</g>
</svg>
