<svg width="89" height="124" viewBox="0 0 89 124" fill="none" xmlns="http://www.w3.org/2000/svg">
<path d="M39.9267 121.498C6.25086 70.4841 0 65.2484 0 46.5C0 20.8187 19.9233 0 44.5 0C69.0767 0 89 20.8187 89 46.5C89 65.2484 82.7491 70.4841 49.0733 121.498C46.8634 124.834 42.1364 124.834 39.9267 121.498ZM44.5 65.875C54.7403 65.875 63.0417 57.2006 63.0417 46.5C63.0417 35.7994 54.7403 27.125 44.5 27.125C34.2597 27.125 25.9583 35.7994 25.9583 46.5C25.9583 57.2006 34.2597 65.875 44.5 65.875Z" fill="black"/>
</svg>
