<?xml version="1.0" encoding="utf-8"?>
<svg version="1.1" id="Layer_1" xmlns="http://www.w3.org/2000/svg" xmlns:xlink="http://www.w3.org/1999/xlink" x="0px" y="0px"
	 viewBox="0 0 572.7 554.5" style="enable-background:new 0 0 572.7 554.5;" xml:space="preserve">
<style type="text/css">
	.st0{fill:#34405A;}
</style>
<g>
	<path class="st0" d="M535,135.3C509.9,93.1,475.8,60,432.8,36C389.7,12,340.9,0,286.4,0C231.8,0,183,12.4,139.9,37.1
		C114.2,51.5,91.6,69,72.3,89.6l117.8,110.5c9.2-13.3,20.8-24,34.9-32c17.9-10.9,38.4-16.4,61.4-16.4c23.7,0,44.1,5.5,61.4,16.4
		c17.9,10.2,31.9,24.7,42,43.7c10,18.2,15.1,39.7,15.1,64.4c0,24.7-5,46.9-15.1,66.6c-5,10.2-11.2,19.2-18.7,27l115.9,108.7
		c18.6-17.6,34.7-37.7,48.2-60.4c25.1-42.2,37.7-89.5,37.7-141.9S560.1,176.8,535,135.3z M1.7,243.8C0.6,254.3,0,265.1,0,276.1
		c0,52.4,12.6,99.7,37.7,141.9c25.1,42.2,59.2,75.7,102.3,100.4c43.8,24,92.6,36,146.4,36c15,0,29.5-0.9,43.7-2.7L1.7,243.8z"/>
	<path class="st0" d="M348.8,387.5c-17.9,10.2-38.8,15.3-62.4,15.3c-23,0-43.4-5.1-61.4-15.3c-17.9-10.9-31.9-25.8-42-44.7
		c-10-19.6-15.1-41.5-15.1-65.5c0-24.7,5-46.6,15.1-65.5c2.2-4.1,4.5-8,7.1-11.7L371,369.7C364.5,376.5,357.1,382.4,348.8,387.5z"/>
</g>
</svg>
