<?xml version="1.0" encoding="utf-8"?>
<!-- Generator: Adobe Illustrator 25.0.0, SVG Export Plug-In . SVG Version: 6.00 Build 0)  -->
<svg version="1.1" id="Layer_1" xmlns="http://www.w3.org/2000/svg" xmlns:xlink="http://www.w3.org/1999/xlink" x="0px" y="0px"
	 viewBox="0 0 407.3 384.2" style="enable-background:new 0 0 407.3 384.2;" xml:space="preserve">
<g>
	<path d="M375,136.8H32.3c-6.9,0-12.5-5.6-12.5-12.5C19.8,57.1,74.4,2.5,141.6,2.5h124.1c67.2,0,121.8,54.6,121.8,121.8
		C387.5,131.2,381.9,136.8,375,136.8z M45.6,111.8h316.1c-6.1-47.5-46.9-84.3-96-84.3H141.6C92.5,27.5,51.8,64.3,45.6,111.8z"/>
</g>
<g>
	<path d="M320.4,381.7H87c-37,0-67.1-30.1-67.1-67.1v-54.6c0-6.9,5.6-12.5,12.5-12.5H375c6.9,0,12.5,5.6,12.5,12.5v54.6
		C387.5,351.6,357.4,381.7,320.4,381.7z M44.8,272.4v42.1c0,23.2,18.9,42.1,42.1,42.1h233.4c23.2,0,42.1-18.9,42.1-42.1v-42.1H44.8z
		"/>
</g>
<g>
	<path d="M324.1,226.1c-8.8,0-16.6-4.9-20.5-12.7l-16.8-33.6c-0.7-1.4-1.8-1.6-2.7-1.6c-0.8,0-2,0.3-2.7,1.6l-16.8,33.6
		c-3.9,7.8-11.8,12.7-20.5,12.7c-8.8,0-16.6-4.9-20.5-12.7l-16.8-33.6c-0.7-1.4-1.8-1.6-2.7-1.6c-0.8,0-2,0.3-2.7,1.6l-16.8,33.6
		c-3.9,7.8-11.8,12.7-20.5,12.7c-8.8,0-16.6-4.9-20.5-12.7l-16.8-33.6c-0.7-1.4-1.8-1.6-2.7-1.6c-0.8,0-2,0.3-2.7,1.6l-16.8,33.6
		c-3.9,7.8-11.8,12.7-20.5,12.7c-8.8,0-16.6-4.9-20.5-12.7l-16.8-33.6c-0.7-1.4-1.8-1.6-2.7-1.6c-0.8,0-2,0.3-2.7,1.6l-20,40.1
		c-2.5,4.9-8.5,6.9-13.4,4.5c-4.9-2.5-6.9-8.5-4.5-13.4l20-40.1c3.9-7.8,11.8-12.7,20.5-12.7c8.8,0,16.6,4.9,20.5,12.7l16.8,33.6
		c0.7,1.4,1.8,1.6,2.7,1.6c0.8,0,2-0.3,2.7-1.6l16.8-33.6c3.9-7.8,11.8-12.7,20.5-12.7c8.8,0,16.6,4.9,20.5,12.7l16.8,33.6
		c0.7,1.4,1.8,1.6,2.7,1.6c0.8,0,2-0.3,2.7-1.6l16.8-33.6c3.9-7.8,11.8-12.7,20.5-12.7c8.8,0,16.6,4.9,20.5,12.7l16.8,33.6
		c0.7,1.4,1.8,1.6,2.7,1.6c0.8,0,2-0.3,2.7-1.6l16.8-33.6c3.9-7.8,11.8-12.7,20.5-12.7c8.8,0,16.6,4.9,20.5,12.7l16.8,33.6
		c0.7,1.4,1.8,1.6,2.7,1.6c0.8,0,2-0.3,2.7-1.6l16.8-33.6c3.9-7.8,11.8-12.7,20.5-12.7c8.8,0,16.6,4.9,20.5,12.7
		c0,0.1,0.1,0.1,0.1,0.2l19.1,40.2c2.4,5,0.2,11-4.7,13.3s-11,0.2-13.3-4.7l-19.1-40.1c-0.7-1.3-1.8-1.6-2.6-1.6
		c-0.8,0-2,0.3-2.7,1.6l-16.8,33.6C340.7,221.2,332.9,226.1,324.1,226.1z"/>
</g>
</svg>
