<?xml version="1.0" encoding="utf-8"?>
<!-- Generator: Adobe Illustrator 25.0.0, SVG Export Plug-In . SVG Version: 6.00 Build 0)  -->
<svg version="1.1" id="Layer_1" xmlns="http://www.w3.org/2000/svg" xmlns:xlink="http://www.w3.org/1999/xlink" x="0px" y="0px"
	 viewBox="0 0 22 14" style="enable-background:new 0 0 22 14;" xml:space="preserve">
<path d="M22,5.5V5.3c0-1.6-0.7-3-2-4c-0.1-0.1-0.1-0.1-0.2-0.2c-0.5-0.4-1.1-0.6-1.7-0.8c0,0,0,0,0,0c0,0,0,0,0,0c0,0,0,0,0,0
	C17.5,0.1,16.9,0,16.4,0h-2.1h-2.7H7.8H5.6C5.4,0,5.2,0,5,0c0,0,0,0,0,0c0,0,0,0,0,0c0,0,0,0,0,0C2.1,0.3,0,2.6,0,5.3v0.2
	C0,5.7,0.2,5.9,0.5,6c0,0,0,0,0,0v1.2c0,0.2,0.1,0.4,0.2,0.6C0.5,8,0.5,8.2,0.5,8.4v1.2c0,0,0,0,0,0C0.2,9.7,0,9.9,0,10.2
	C0,12.3,1.8,14,4.1,14h13.8c2.3,0,4.1-1.7,4.1-3.8c0-0.3-0.2-0.5-0.5-0.5c0,0,0,0,0,0V8.4c0-0.2-0.1-0.4-0.2-0.6
	c0.1-0.2,0.2-0.4,0.2-0.6V6c0,0,0,0,0,0C21.8,5.9,22,5.7,22,5.5z M17,2.3l1-0.9c0,0,0,0,0.1,0c0,0,0.1,0,0.1,0c0,0,0.1,0,0.1,0
	c0,0,0.1,0,0.1,0c0,0,0.1,0,0.1,0.1c0,0,0,0,0.1,0c0,0,0.1,0,0.1,0.1c0,0,0,0,0.1,0c0,0,0,0,0,0l-1.2,1.1c-0.1,0.1-0.2,0.1-0.3,0.1
	c-0.1,0-0.2,0-0.3-0.1c-0.1-0.1-0.1-0.2-0.1-0.2C16.9,2.5,16.9,2.4,17,2.3z M12.9,1.1l-1.8,1.7c-0.1,0.1-0.2,0.1-0.3,0.1
	c-0.1,0-0.2,0-0.3-0.1c-0.1-0.1-0.1-0.4,0-0.5l1.3-1.2H12.9z M6.4,1.1L4.6,2.8C4.5,2.9,4.4,2.9,4.3,2.9c-0.1,0-0.2,0-0.3-0.1
	C3.9,2.7,3.9,2.4,4,2.3l1.3-1.2c0,0,0,0,0,0c0,0,0.1,0,0.1,0c0,0,0,0,0,0c0,0,0.1,0,0.1,0H6.4z M2.9,1.9C2.6,2.5,2.7,3.1,3.2,3.6
	C3.5,3.8,3.9,4,4.3,4c0.4,0,0.8-0.1,1.1-0.4L8,1.1h2.1L9.7,1.5c-0.6,0.6-0.6,1.5,0,2C10,3.8,10.4,4,10.8,4c0.4,0,0.8-0.1,1.1-0.4
	l2.7-2.5h1.9c0.1,0,0.2,0,0.3,0l-0.5,0.4c-0.3,0.3-0.5,0.6-0.5,1c0,0.4,0.2,0.7,0.5,1C16.5,3.8,16.9,4,17.3,4c0.4,0,0.8-0.1,1.1-0.4
	l1.3-1.2c0.7,0.7,1.1,1.6,1.2,2.5h-0.5c0,0,0,0,0,0H1.6c0,0,0,0,0,0H1.2C1.3,3.7,1.9,2.6,2.9,1.9z M20.4,6v1.2c0,0,0,0,0,0H1.6
	c0,0,0,0,0,0V6c0,0,0,0,0,0L20.4,6C20.4,6,20.4,6,20.4,6z M17.9,12.9H4.1c-1.4,0-2.6-0.9-2.9-2.2h11.6c0.3,0,0.6-0.2,0.6-0.5
	c0-0.3-0.3-0.5-0.6-0.5H1.7c0,0,0,0,0,0c0,0,0,0,0,0V8.4c0,0,0,0,0,0h18.7c0,0,0,0,0,0v1.2c0,0,0,0,0,0c0,0,0,0,0,0h-2.8
	c-0.3,0-0.6,0.2-0.6,0.5c0,0.3,0.3,0.5,0.6,0.5h3.3C20.5,12,19.3,12.9,17.9,12.9z"/>
</svg>
