<?xml version="1.0" encoding="utf-8"?>
<!-- Generator: Adobe Illustrator 25.0.0, SVG Export Plug-In . SVG Version: 6.00 Build 0)  -->
<svg version="1.1" id="Layer_1" xmlns="http://www.w3.org/2000/svg" xmlns:xlink="http://www.w3.org/1999/xlink" x="0px" y="0px"
	 viewBox="0 0 1387.6 1692.6" style="enable-background:new 0 0 1387.6 1692.6;" xml:space="preserve">
<style type="text/css">
	.st0{fill:#082427;}
</style>
<g>
	<path class="st0" d="M1383.8,193.9c-1.7-33.2-5.6-66.6-11.8-99.2c-10.3-54.6-44.7-85.1-100-90.3c-27.2-2.6-54.3-3.9-81.5-4.3
		c-2.6,0-5.2,0.1-7.7,0.1V0c-76.3-0.5-152.4,6.7-228.1,17.2C808.2,37.4,664.6,70.2,527,125.5c-167.4,67.4-308.5,170.2-411.2,319.7
		C42.9,551.3,1.5,670.1,0,799.9c-2.2,190.8,70.8,348.8,212.5,475.7c17.9,16,36.6,31.2,54.5,47.1c8.9,7.9,13.9,16.6,8.6,29.9
		c-36.6,90.2-48.4,184.5-49.2,280.5c0,32.9,26.6,59.5,59.5,59.5c32.9,0,59.5-26.6,59.5-59.5h0c2.2-92.7,19.5-183,51.4-271.2
		c41.5-114.4,80.2-170.8,148.4-270.8c13.5-19.8,25.3-44.2,44.4-37.9c19.1,6.3,64,24.6,135.8,24.1c71.9-0.6,144.6-3.4,240.1-59.4
		c27-15.8,52.1-34.8,78-52.4c30.1-20.5,65.8-13.2,82.6,17.3c11.2,20.3,8,39.9-4.2,58.6c-71.2,110-167.5,188.7-290.8,234.2
		c-72.9,26.9-148.5,30.2-224.9,29.7c-14.5-0.1-29.6,0.5-43.6,4c-27.2,6.8-44.7,30.5-44.7,56.9c0,28.1,18.7,54.5,46.3,60.4
		c74.6,16.1,149.7,17.4,224.5,1.8c160.4-33.4,284.9-122.7,384-250c97-124.7,145.2-270.2,175.7-422.8
		C1385.6,570.1,1393.5,382.5,1383.8,193.9z M545.1,873.2c-75,95.8-142.2,196.9-198.9,304.7c-11,21-21.4,23.3-40.2,5.4
		c-115.4-109.8-188.4-239.3-186.5-403.4c0.1-8.2,0-16.5,0-24.8c0-0.7,0.6-1.3,1.3-1.3c0,0,0,0,0,0c0.7,0,1.3-0.6,1.3-1.3
		c0-20.2-0.6-40.5,0.1-60.7c1.3-34.3,23.5-60.1,54.6-64.5c28.4-4,54,15,63.8,48.8c10.6,36.4,17.8,74,30.9,109.5
		c10.5,28.5,25.2,56.2,42.7,80.9c9.9,13.9,27.9,26.9,44.4,30.4c46,9.8,79.4-34,61.6-78.2c-12.7-31.5-28.8-61.8-40-93.8
		c-41.4-117.9-29.3-234,17.5-347.4c10.8-26.1,26.2-50.9,43-73.7c12.4-16.8,32.5-23.5,54-16.5c21.2,6.8,36.3,21.2,39.8,43.4
		c2.1,13.4,0.6,28.1-2.5,41.4c-12.1,52.3-21.5,104.9-12.5,158.6c4.7,28.1,10.5,56.5,20,83.3c10.2,28.7,37,41.4,64,35.5
		c26.6-5.8,46-31.2,44.2-61.1c-1.7-29.3-7.6-58.3-8.3-87.6c-3.6-153.4,69.4-261,203.7-327.7c80.2-39.8,165.6-44.1,251.2-16.1
		c14.1,4.6,27.9,13.3,39.1,23.2c25.9,22.6,26,48.1,1.4,72.4C1084,302.8,1033,352.7,981.4,402.1C826.5,550.3,677.5,704.1,545.1,873.2
		z M1233.9,554.5c-26.2,156.3-119.7,261.3-257.4,330.7c-87.4,44.1-192.3,60.4-246.6,60.7c-52.4,0.3-67.8-4.2-82.7-10.6
		c-0.8-0.3-1-1.4-0.4-2c32.3-35.8,68.5-79.5,102.1-113.8c125.8-128.1,252.4-255.2,378.8-382.7c5.2-5.2,11.2-9.5,16.5-14.6
		c17.8-16.8,38-25.8,61.8-14.5c23.6,11.2,34,32.5,33.9,57C1239.8,494.8,1238.8,525.1,1233.9,554.5z"/>
</g>
</svg>
