<?xml version="1.0" encoding="utf-8"?>
<!-- Generator: Adobe Illustrator 25.0.0, SVG Export Plug-In . SVG Version: 6.00 Build 0)  -->
<svg version="1.1" id="Layer_1" xmlns="http://www.w3.org/2000/svg" xmlns:xlink="http://www.w3.org/1999/xlink" x="0px" y="0px"
	 viewBox="0 0 256 256" style="enable-background:new 0 0 256 256;" xml:space="preserve">
<style type="text/css">
	.st0{fill:#058274;}
	.st1{fill:none;stroke:#FFFFFF;stroke-width:22.4033;stroke-linecap:round;stroke-miterlimit:10;}
</style>
<path class="st0" d="M181,256H75c-41.4,0-75-33.6-75-75V75C0,33.6,33.6,0,75,0h106c41.4,0,75,33.6,75,75v106
	C256,222.4,222.4,256,181,256z"/>
<g>
	<line class="st1" x1="128" y1="209.3" x2="128" y2="140.9"/>
	<path class="st1" d="M128,46.7c0,0,40.3,8.1,51.9,57.4c8.9,37.6-4.6,59.7-19,70.4c-15.6,11.6-25.5,7.9-32.7,9.9"/>
	<path class="st1" d="M75.7,105.8c-8.1,36.6,5.2,58.1,19.4,68.7c15.6,11.6,25.5,7.9,32.7,9.9"/>
	<path class="st1" d="M128,140.9c0,0,0-0.3,0-0.8c-0.7-19.2-16.6-34.4-35.8-34.4H75.7"/>
	<line class="st1" x1="128" y1="83.7" x2="128" y2="46.7"/>
</g>
</svg>
