<?xml version="1.0" encoding="utf-8"?>
<!-- Generator: Adobe Illustrator 25.0.0, SVG Export Plug-In . SVG Version: 6.00 Build 0)  -->
<svg version="1.1" id="Layer_1" xmlns="http://www.w3.org/2000/svg" xmlns:xlink="http://www.w3.org/1999/xlink" x="0px" y="0px"
	 viewBox="0 0 2048 2048" style="enable-background:new 0 0 2048 2048;" xml:space="preserve">
<style type="text/css">
	.st0{fill:url(#SVGID_1_);}
	.st1{fill:url(#SVGID_2_);}
	.st2{fill:url(#SVGID_3_);}
</style>
<g>
	
		<linearGradient id="SVGID_1_" gradientUnits="userSpaceOnUse" x1="3780.2954" y1="3780.8584" x2="-2625.4407" y2="-2624.8779" gradientTransform="matrix(1 0 0 -1 0 2048)">
		<stop  offset="0.27" style="stop-color:#082427"/>
		<stop  offset="0.533" style="stop-color:#031B1E"/>
		<stop  offset="0.5862" style="stop-color:#02191B"/>
	</linearGradient>
	<path class="st0" d="M2047.8,1012.3c-0.1,0-0.3,0-0.4,0c0-172.9,1-345.8-0.2-518.6c-2.2-300-250.3-495.8-494.6-493.6
		c-5.3,0-10.6,0.1-15.9,0.1c-5-0.1-10.1-0.2-15.1-0.1c-315.6,2.8-631.3,0.8-947,0.8c-26.4,0-52.8,0-79.2,0
		C371.2,1,263.1,44.4,170.6,126.4C57.7,226.7-0.1,352.3,0.1,504.3c0.3,340.4-0.3,680.8,0,1021.3C0.3,1743,122.3,1926,322.4,2010.5
		c52,21.9,105.9,37.1,162.8,37.3c3.6,0,7-0.2,10.4-0.7c6.8,0.5,13.7,0.7,20.6,0.7c33.4,0.2,56.6-22.7,58.5-55.9
		c0.5-9.3,0.4-18.7,0.3-28c-1.2-104.9,9.3-208,49.2-306.2c5.4-13.3,0.3-22-8.6-29.9c-18-15.9-36.6-31.1-54.5-47.1
		c-141.7-126.8-214.7-284.9-212.5-475.7c1.4-130,42.8-248.8,115.7-354.8c102.8-149.5,243.8-252.3,411.2-319.7
		c137.6-55.4,281.2-88.2,427.6-108.4c75.7-10.4,151.8-17.7,228.1-17.2v0.2c2.6-0.1,5.2-0.1,7.7-0.1c27.1,0.4,54.3,1.7,81.5,4.3
		c55.4,5.2,89.7,35.8,100,90.3c6.2,32.7,10,66,11.7,99.2c9.7,188.6,1.8,376.1-35.4,561.9c-30.5,152.6-78.7,298.1-175.7,422.8
		c-99,127.3-223.6,216.6-383.9,250c-74.8,15.6-149.9,14.3-224.5-1.8c-27.6-5.9-46.3-32.3-46.3-60.4c0-26.4,17.5-50.1,44.7-56.9
		c14-3.5,29-4.1,43.6-4c76.4,0.4,152-2.8,224.9-29.7c123.3-45.6,219.6-124.2,290.8-234.2c12.1-18.8,15.3-38.4,4.2-58.6
		c-16.8-30.5-52.5-37.8-82.6-17.3c-25.9,17.6-51,36.6-78,52.4c-95.5,56-168.2,58.8-240.1,59.4c-71.8,0.6-116.7-17.7-135.8-24.1
		s-30.9,18.1-44.4,37.9c-68.2,100-106.9,156.4-148.4,270.8c-37.3,102.9-54.6,208.8-51.3,318.1c1.2,39.8,22.7,60.6,62.9,62.5
		c4.7,0.2,9.3,0.2,14,0.2c250.3,0.1,500.6,1,750.9-0.6c3.1,0,6.3-0.1,9.4-0.2v0.3c7.2,0,14.4-0.1,21.6-0.1
		c42.8-0.3,86.9-6.5,128.1-18c217.3-60.5,365.7-262.4,366.6-496.2C2048.3,1359.3,2047.8,1185.8,2047.8,1012.3z"/>
	
		<linearGradient id="SVGID_2_" gradientUnits="userSpaceOnUse" x1="2374.6863" y1="2633.3147" x2="-973.5557" y2="-714.9272" gradientTransform="matrix(1 0 0 -1 0 2048)">
		<stop  offset="0.1349" style="stop-color:#082427"/>
		<stop  offset="0.6352" style="stop-color:#031B1E"/>
		<stop  offset="0.7362" style="stop-color:#02191B"/>
	</linearGradient>
	<path class="st1" d="M893.6,1178.1c132.3-169,281.3-322.8,436.3-471.1c51.6-49.4,102.6-99.3,153.5-149.4
		c24.6-24.2,24.5-49.8-1.4-72.4c-11.3-9.8-25-18.6-39.1-23.2c-85.6-28-171-23.7-251.2,16.1C1057.4,544.8,984.4,652.4,988,805.8
		c0.7,29.2,6.6,58.3,8.3,87.6c1.8,30-17.5,55.3-44.2,61.1c-26.9,5.9-53.7-6.8-64-35.5c-9.5-26.8-15.3-55.1-20-83.3
		c-8.9-53.7,0.5-106.2,12.5-158.6c3.1-13.4,4.6-28,2.5-41.4c-3.4-22.2-18.6-36.6-39.8-43.4c-21.5-6.9-41.7-0.2-54,16.5
		c-16.8,22.8-32.2,47.6-43,73.7C699.4,796,687.4,912.1,728.8,1030c11.2,32,27.4,62.2,40,93.7c17.8,44.2-15.6,88.1-61.6,78.2
		c-16.5-3.5-34.6-16.5-44.4-30.4c-17.5-24.8-32.2-52.5-42.7-80.9c-13.1-35.5-20.3-73.1-30.9-109.5c-9.8-33.8-35.4-52.9-63.8-48.8
		c-31.1,4.4-49.6,28.1-54.6,64.5c-2.8,20.4-2.7,46.6-2.7,88c0.1,164.1,71.1,293.7,186.5,403.4c18.8,17.9,29.1,15.5,40.2-5.4
		C751.5,1375,818.7,1273.9,893.6,1178.1z"/>
	
		<linearGradient id="SVGID_3_" gradientUnits="userSpaceOnUse" x1="2202.5796" y1="1863.4192" x2="204.9677" y2="-134.1927" gradientTransform="matrix(1 0 0 -1 0 2048)">
		<stop  offset="2.579431e-04" style="stop-color:#082427"/>
		<stop  offset="0.8273" style="stop-color:#031B1E"/>
		<stop  offset="0.9944" style="stop-color:#02191B"/>
	</linearGradient>
	<path class="st2" d="M1097.3,1124.5c-34,34.7-70.7,79-103.3,115.1c15.5,6.7,30,11.6,84.3,11.3c54.3-0.3,159.2-16.6,246.6-60.7
		c137.7-69.4,231.3-174.4,257.4-330.7c4.9-29.4,5.9-59.7,6-89.6c0-24.6-10.3-45.9-33.9-57.1c-23.9-11.3-44-2.3-61.8,14.5
		c-5.3,5-11.4,9.4-16.5,14.6C1349.7,869.3,1223.1,996.5,1097.3,1124.5z"/>
</g>
</svg>
